<mxfile host="app.diagrams.net" modified="2024-04-28T06:31:30.217Z" agent="Mozilla/5.0 (Windows NT 10.0; Win64; x64) AppleWebKit/537.36 (KHTML, like Gecko) Chrome/124.0.0.0 Safari/537.36 Edg/124.0.0.0" version="24.3.1" etag="3vEueideG0-iz8_oV326" type="github">
  <diagram name="第 1 页" id="BInCOGl6KhxvDSuAPgkd">
    <mxGraphModel>
      <root>
        <mxCell id="0" />
        <mxCell id="1" parent="0" />
      </root>
    </mxGraphModel>
  </diagram>
</mxfile>
